<?xml version="1.0" standalone="no"?>
<!DOCTYPE svg PUBLIC "-//W3C//DTD SVG 20010904//EN"
 "http://www.w3.org/TR/2001/REC-SVG-20010904/DTD/svg10.dtd">
<svg version="1.0" xmlns="http://www.w3.org/2000/svg"
 width="256.000000pt" height="128.000000pt" viewBox="0 0 256.000000 128.000000"
 preserveAspectRatio="xMidYMid meet">

<g transform="translate(0.000000,128.000000) scale(0.100000,-0.100000)"
fill="#000000" stroke="none">
<path d="M0 1215 c0 -45 4 -65 13 -65 9 0 8 -3 -2 -9 -10 -6 -4 -11 20 -16 19
-3 43 -9 54 -12 11 -3 17 -2 13 2 -4 5 5 15 20 23 20 11 45 12 102 7 85 -8 80
-8 140 -4 24 1 39 4 32 7 -18 6 -4 22 21 23 21 0 21 1 2 8 -17 7 -16 9 12 15
18 4 45 7 60 5 16 -1 35 1 43 4 8 4 24 5 35 3 11 -2 26 1 34 7 20 16 29 17
246 22 198 5 355 -2 355 -14 0 -3 -10 -11 -22 -16 -13 -6 -23 -15 -23 -22 0
-21 -55 -63 -83 -63 -30 0 -92 -34 -92 -51 0 -15 -40 -1 -67 24 -13 11 -21 23
-18 25 2 3 -5 18 -16 33 -17 24 -28 29 -63 29 -23 0 -47 5 -52 10 -7 7 -16 6
-28 -3 -17 -13 -17 -14 10 -24 44 -17 57 -23 80 -36 19 -11 20 -15 8 -32 -12
-16 -11 -22 8 -42 12 -13 26 -23 32 -23 12 0 39 -51 31 -58 -2 -3 -18 1 -35 8
-22 9 -34 10 -42 2 -8 -8 -5 -9 11 -5 11 3 21 1 21 -5 0 -12 -24 -22 -56 -22
-14 0 -22 -4 -19 -10 3 -5 -1 -10 -10 -10 -8 0 -20 -11 -24 -24 -5 -13 -17
-26 -25 -29 -9 -4 -16 -18 -16 -32 0 -14 -4 -25 -10 -25 -5 0 -10 7 -10 15 0
13 -24 15 -92 6 -5 -1 -8 -12 -8 -26 0 -30 24 -43 45 -25 19 16 145 14 145 -2
0 -4 9 -8 20 -8 11 0 20 -4 20 -8 0 -9 -53 -7 -69 3 -6 3 -11 1 -11 -4 0 -6
-4 -11 -10 -11 -5 0 -10 7 -10 15 0 9 -9 15 -24 15 -31 0 -44 -20 -22 -32 9
-5 16 -18 16 -30 0 -18 4 -19 33 -13 53 12 116 7 133 -10 8 -8 22 -15 29 -15
7 0 23 -11 33 -25 11 -14 41 -33 66 -41 55 -19 62 -28 43 -57 -8 -12 -19 -38
-26 -59 -8 -25 -19 -38 -36 -42 -14 -4 -25 -12 -25 -19 0 -12 -72 -87 -84 -87
-13 0 -53 -49 -43 -53 8 -3 5 -11 -8 -21 -20 -16 -20 -16 2 -22 13 -3 20 -10
17 -15 -8 -13 -48 -11 -69 5 -17 12 -17 18 -6 77 32 172 32 172 7 194 -29 25
-56 69 -56 91 0 10 7 25 16 35 19 21 12 51 -10 43 -8 -3 -23 3 -34 13 -25 24
-58 43 -76 43 -24 0 -66 22 -66 35 0 7 -10 20 -22 31 -19 15 -20 16 -9 2 8
-11 9 -18 3 -18 -6 0 -19 12 -29 26 -10 14 -33 42 -51 61 -18 20 -32 46 -31
57 2 37 -1 46 -16 46 -8 0 -14 6 -13 13 2 6 -3 11 -10 9 -7 -1 -23 9 -35 23
-17 21 -32 26 -66 27 -24 0 -46 -4 -50 -9 -7 -11 -131 -46 -138 -39 -3 2 13
10 36 17 36 11 39 13 23 25 -9 7 -20 10 -24 8 -4 -3 -5 2 -2 10 3 8 13 16 22
19 10 2 2 6 -16 8 -25 4 -32 2 -28 -8 3 -7 1 -13 -4 -13 -6 0 -10 4 -10 8 0 4
-13 9 -30 10 l-30 2 0 -530 0 -530 95 0 c77 0 93 3 89 14 -3 8 -12 17 -20 20
-25 9 -15 21 19 22 17 0 52 4 77 8 25 4 61 9 80 11 19 1 37 3 40 4 6 3 91 1
137 -4 18 -1 30 1 28 6 -3 4 40 6 95 5 82 -3 100 -1 100 11 0 8 4 12 9 8 5 -3
13 0 16 6 4 5 14 8 22 5 8 -3 11 -1 8 4 -3 6 1 10 9 10 9 0 16 4 16 9 0 10 24
21 60 27 25 4 25 4 -5 -21 -16 -14 -34 -25 -38 -25 -5 0 -1 -8 8 -17 16 -16
15 -18 -16 -45 -39 -31 -30 -34 52 -17 40 9 61 8 91 -2 28 -9 41 -10 46 -2 4
6 25 14 47 18 22 4 45 11 50 15 21 16 75 23 225 30 178 9 234 15 282 28 35 10
148 -4 158 -20 3 -4 28 0 55 8 75 24 422 23 553 -1 99 -18 129 -30 99 -40 -51
-16 -53 -18 -22 -25 l30 -8 -27 -1 c-15 0 -29 -5 -33 -10 -5 -9 18 -15 93 -24
l32 -4 0 234 c0 154 -3 232 -10 228 -5 -3 -10 -2 -10 4 0 5 5 13 10 16 7 4 10
105 10 282 l-1 275 -32 -7 c-18 -3 -40 -8 -50 -10 -26 -6 -37 -15 -37 -31 0
-8 -7 -14 -15 -14 -8 0 -15 -3 -15 -7 0 -5 -13 -17 -28 -27 l-27 -20 18 21 c9
11 15 27 12 36 -4 9 3 21 17 31 22 15 20 16 -42 10 -36 -4 -72 -13 -80 -20
-12 -12 -12 -14 2 -14 22 0 30 -27 17 -52 -11 -20 -9 -21 22 -14 31 6 32 5 14
-8 -11 -9 -26 -16 -33 -16 -6 0 -11 -3 -10 -7 4 -16 -14 -53 -25 -53 -7 0 -24
-6 -39 -14 -23 -12 -27 -12 -32 1 -3 8 -11 11 -18 7 -7 -5 -9 -2 -6 8 4 8 2
21 -3 29 -15 23 -28 -8 -24 -60 3 -49 -3 -71 -15 -52 -5 9 -13 9 -33 0 -15 -7
-27 -16 -27 -21 0 -4 -5 -8 -11 -8 -5 0 -7 5 -4 10 3 6 1 10 -4 10 -6 0 -11
-7 -11 -15 0 -8 5 -15 10 -15 17 0 11 -47 -6 -54 -10 -4 -25 1 -35 10 -16 15
-19 15 -19 2 0 -9 6 -21 14 -27 8 -7 17 -22 20 -35 8 -33 34 -42 28 -10 -3 19
-1 23 11 18 20 -7 67 55 67 89 0 15 5 27 10 27 6 0 10 -6 10 -14 0 -7 7 -19
15 -26 18 -15 20 -62 3 -59 -18 3 -48 -11 -48 -22 0 -5 12 -9 26 -9 14 0 23
-4 19 -10 -3 -6 -1 -10 4 -10 6 0 11 7 11 15 0 8 5 15 10 15 6 0 10 -4 10 -9
0 -5 20 -12 44 -15 24 -4 52 -13 62 -20 19 -14 48 -10 38 5 -3 5 -1 9 5 9 20
0 24 -23 6 -37 -17 -12 -17 -13 -2 -13 9 0 17 -4 17 -10 0 -14 -33 -13 -48 2
-6 6 -15 9 -18 5 -9 -9 21 -69 46 -92 36 -33 23 -97 -26 -123 -18 -10 -28 -7
-64 19 -37 27 -48 30 -86 24 -24 -3 -46 -10 -49 -15 -3 -5 -12 -7 -20 -4 -8 4
-13 10 -10 14 3 5 1 20 -5 35 -12 32 2 65 28 65 9 0 23 9 30 20 7 11 20 20 28
20 9 0 22 7 28 15 13 18 60 9 52 -10 -3 -8 1 -16 9 -18 8 -4 15 3 17 18 5 26
-26 60 -44 49 -7 -4 -8 -3 -4 4 4 7 4 12 -1 13 -52 5 -73 2 -73 -8 0 -8 13
-13 33 -13 l32 -1 -34 -14 c-28 -13 -44 -13 -95 -3 -69 14 -104 35 -131 80
-18 31 -18 31 4 25 11 -3 21 -4 21 -3 0 16 -28 75 -43 93 -26 29 -32 29 -69
-2 -16 -14 -27 -25 -23 -25 3 0 1 -9 -5 -20 -15 -28 -26 -25 -40 13 -20 50
-59 87 -93 87 -24 0 -27 -3 -18 -14 16 -19 -16 -50 -73 -70 -38 -15 -39 -15
-8 -12 44 6 42 -14 -8 -68 -35 -37 -40 -49 -40 -89 0 -36 -4 -49 -20 -57 -11
-6 -18 -15 -15 -20 6 -10 -10 -43 -36 -73 -10 -11 -32 -19 -54 -20 -36 -2 -37
-1 -61 58 -18 42 -23 70 -19 93 4 23 1 42 -10 59 -9 13 -14 31 -11 39 8 21
-31 33 -85 27 -38 -4 -48 -2 -72 22 -15 15 -27 32 -28 36 -6 55 14 124 33 113
4 -3 11 3 15 13 4 10 11 22 17 26 8 6 7 10 -1 14 -7 2 -13 16 -13 29 0 20 5
24 30 24 31 0 41 16 15 26 -8 4 -15 12 -15 19 0 8 -8 11 -20 8 -39 -10 -11 39
37 64 12 6 23 8 23 3 0 -4 -5 -10 -12 -12 -7 -3 -3 -13 11 -27 21 -21 24 -22
39 -7 13 12 13 19 4 28 -17 17 -15 38 3 38 8 0 24 9 34 19 34 34 94 46 154 31
62 -16 107 -20 107 -9 0 4 17 6 38 3 34 -4 32 -1 -8 13 -23 7 49 42 89 43 37
0 38 -8 2 -15 -13 -2 -32 -7 -44 -11 -20 -6 -19 -8 13 -19 29 -10 37 -9 53 5
10 10 27 15 42 12 14 -2 33 -1 42 3 10 4 25 9 33 10 58 8 107 19 116 26 11 9
85 -10 96 -25 3 -5 27 -9 52 -9 25 1 48 -3 52 -8 8 -13 74 -11 74 2 0 6 -7 8
-16 5 -10 -4 -14 -1 -11 6 2 8 22 13 48 13 59 1 83 -8 39 -15 -29 -5 -21 -8
50 -19 47 -7 105 -11 130 -9 l45 3 3 68 3 67 -1281 0 -1280 0 0 -65z m1732 5
c45 0 6 -12 -55 -16 -42 -4 -67 -2 -72 6 -4 7 5 10 29 8 19 -1 39 1 43 5 4 4
13 5 21 2 7 -3 23 -5 34 -5z m-284 -25 c-47 -13 -98 -10 -98 6 0 10 62 15 110
10 l35 -4 -47 -12z m537 15 c4 -6 -8 -10 -29 -10 -20 0 -36 4 -36 8 0 12 58
14 65 2z m-800 -104 c0 -5 -9 -12 -20 -16 -23 -8 -69 5 -61 18 7 11 81 9 81
-2z m-85 -196 c8 -5 11 -10 5 -10 -5 0 -17 5 -25 10 -8 5 -10 10 -5 10 6 0 17
-5 25 -10z m70 -70 c0 -5 -2 -10 -4 -10 -3 0 -8 5 -11 10 -3 6 -1 10 4 10 6 0
11 -4 11 -10z m1030 -10 c0 -5 -5 -10 -11 -10 -5 0 -7 5 -4 10 3 6 8 10 11 10
2 0 4 -4 4 -10z m-1457 -14 c4 -10 1 -13 -9 -9 -7 3 -14 9 -14 14 0 14 17 10
23 -5z m-573 -26 c8 -5 12 -11 10 -14 -3 -2 -14 2 -24 10 -22 15 -10 19 14 4z
m680 -48 c0 -15 -2 -15 -10 -2 -13 20 -13 33 0 25 6 -3 10 -14 10 -23z m270 8
c0 -5 -5 -10 -11 -10 -5 0 -7 5 -4 10 3 6 8 10 11 10 2 0 4 -4 4 -10z m823
-25 c-3 -9 -8 -14 -10 -11 -3 3 -2 9 2 15 9 16 15 13 8 -4z m-79 -36 c-3 -5
-10 -7 -15 -3 -5 3 -7 10 -3 15 3 5 10 7 15 3 5 -3 7 -10 3 -15z m-1219 -49
c3 -5 -1 -10 -10 -10 -9 0 -13 5 -10 10 3 6 8 10 10 10 2 0 7 -4 10 -10z
m1786 -66 c17 -21 -5 -17 -32 5 -24 20 -24 20 -2 14 12 -3 28 -11 34 -19z m51
-48 c7 -34 -5 -51 -28 -41 -17 8 -17 9 4 12 12 3 20 9 17 14 -10 16 -14 50 -6
44 5 -2 11 -16 13 -29z m-842 4 c0 -12 -7 -35 -16 -51 -12 -25 -18 -28 -30
-19 -17 15 -8 59 15 77 23 18 31 16 31 -7z m60 -34 c0 -2 -7 -6 -15 -10 -8 -3
-15 -1 -15 4 0 6 7 10 15 10 8 0 15 -2 15 -4z m833 -111 c18 -13 18 -14 0 -38
-23 -31 -51 -50 -64 -42 -5 4 4 20 21 37 24 24 28 33 19 44 -15 18 1 18 24 -1z
m-193 -40 c0 -8 -7 -15 -15 -15 -26 0 -18 20 13 29 1 1 2 -6 2 -14z m-1470
-75 c0 -5 -4 -10 -10 -10 -5 0 -10 5 -10 10 0 6 5 10 10 10 6 0 10 -4 10 -10z"/>
<path d="M540 1159 c0 -5 5 -7 10 -4 6 3 10 8 10 11 0 2 -4 4 -10 4 -5 0 -10
-5 -10 -11z"/>
<path d="M635 1159 c-4 -6 -5 -12 -2 -15 2 -3 7 2 10 11 7 17 1 20 -8 4z"/>
<path d="M704 1106 c1 -17 -4 -21 -28 -19 -32 2 -69 -14 -61 -26 2 -5 22 -12
42 -16 21 -4 41 -12 45 -18 5 -8 8 -6 8 6 0 12 4 16 13 11 8 -5 7 -2 -2 9 -11
14 -12 23 -2 43 14 31 14 31 -3 31 -7 0 -13 -10 -12 -21z"/>
<path d="M1416 1081 c-4 -6 -1 -11 6 -12 7 0 4 -4 -7 -9 -14 -6 -15 -9 -5 -10
10 -1 9 -4 -5 -10 -17 -7 -17 -9 -3 -9 21 -1 40 30 29 48 -6 9 -11 10 -15 2z"/>
<path d="M795 1070 c3 -5 8 -10 11 -10 2 0 4 5 4 10 0 6 -5 10 -11 10 -5 0 -7
-4 -4 -10z"/>
<path d="M2259 964 c-7 -9 -23 -20 -36 -25 -15 -6 -23 -17 -23 -33 0 -23 0
-23 34 -8 25 11 36 24 40 45 7 37 3 43 -15 21z"/>
<path d="M1485 950 c-4 -6 11 -10 37 -9 36 1 39 2 18 9 -36 11 -48 11 -55 0z"/>
<path d="M1620 951 c0 -6 5 -11 11 -11 6 0 9 -7 5 -15 -3 -9 0 -15 10 -15 11
0 12 4 4 19 -12 24 -30 36 -30 22z"/>
<path d="M1325 942 c-15 -11 -17 -32 -2 -32 7 0 13 9 14 20 2 22 2 23 -12 12z"/>
<path d="M1350 925 c0 -16 16 -20 24 -6 3 5 -1 11 -9 15 -9 3 -15 0 -15 -9z"/>
<path d="M1280 909 c0 -5 5 -7 10 -4 6 3 10 8 10 11 0 2 -4 4 -10 4 -5 0 -10
-5 -10 -11z"/>
<path d="M1383 906 c-13 -6 -23 -14 -23 -17 0 -11 59 -29 65 -20 2 5 24 6 49
4 29 -4 46 -1 51 7 5 9 4 11 -3 6 -7 -4 -12 -3 -12 3 0 6 -11 6 -29 1 -23 -6
-34 -4 -50 11 -11 10 -21 18 -23 18 -2 -1 -13 -6 -25 -13z"/>
<path d="M1550 781 c0 -5 7 -15 17 -22 15 -13 15 -12 4 9 -12 23 -21 28 -21
13z"/>
<path d="M2125 700 c-3 -5 -2 -10 4 -10 5 0 13 5 16 10 3 6 2 10 -4 10 -5 0
-13 -4 -16 -10z"/>
<path d="M2114 625 c-4 -9 -20 -15 -43 -16 -32 -1 -34 -2 -11 -9 50 -16 68
-12 66 15 -1 29 -4 31 -12 10z"/>
<path d="M743 73 c9 -2 23 -2 30 0 6 3 -1 5 -18 5 -16 0 -22 -2 -12 -5z"/>
<path d="M866 61 c-4 -5 3 -7 14 -4 23 6 26 13 6 13 -8 0 -17 -4 -20 -9z"/>
</g>
</svg>
